inDegrees=no
num_controls=7
num_derivatives=13
num_iterations=144
num_multipliers=7
num_parameters=0
num_slacks=7
num_states=26
objective=5.111584
objective_accelerations=0.545432
objective_balance=0.033194
objective_effort=0.314521
objective_height=4.196921
objective_ligament=0.021515
solver_duration=1589.727363
status=Solve_Succeeded
success=true
DataType=double
version=3
OpenSimVersion=4.4-2022-07-23-0e9fedc
endheader
time	/jointset/ground_pelvis/pelvis_tilt/value	/jointset/ground_pelvis/pelvis_tx/value	/jointset/ground_pelvis/pelvis_ty/value	/jointset/hip_l/hip_flexion_l/value	/jointset/hip_l/hip_adduction_l/value	/jointset/hip_l/hip_rotation_l/value	/jointset/back/lumbar_extension/value	/jointset/patellofemoral_l/patellar_flexion_l/value	/jointset/knee_l/knee_flexion_l/value	/jointset/knee_l/knee_adduction_l/value	/jointset/knee_l/knee_rotation_l/value	/jointset/ankle_l/ankle_angle_l/value	/jointset/subtalar_l/subtalar_angle_l/value	/jointset/ground_pelvis/pelvis_tilt/speed	/jointset/ground_pelvis/pelvis_tx/speed	/jointset/ground_pelvis/pelvis_ty/speed	/jointset/hip_l/hip_flexion_l/speed	/jointset/hip_l/hip_adduction_l/speed	/jointset/hip_l/hip_rotation_l/speed	/jointset/back/lumbar_extension/speed	/jointset/patellofemoral_l/patellar_flexion_l/speed	/jointset/knee_l/knee_flexion_l/speed	/jointset/knee_l/knee_adduction_l/speed	/jointset/knee_l/knee_rotation_l/speed	/jointset/ankle_l/ankle_angle_l/speed	/jointset/subtalar_l/subtalar_angle_l/speed	/forceset/tau_hip_flexion_l	/forceset/tau_hip_adduction_l	/forceset/tau_hip_rotation_l	/forceset/tau_knee_flexion_l	/forceset/tau_ankle_angle_l	/forceset/tau_subtalar_angle_l	/forceset/tau_lumbar_extension	lambda_cid13_p0	lambda_cid13_p1	lambda_cid13_p2	lambda_cid13_p3	lambda_cid13_p4	lambda_cid13_p5	lambda_cid14_p0	/jointset/ground_pelvis/pelvis_tilt/accel	/jointset/ground_pelvis/pelvis_tx/accel	/jointset/ground_pelvis/pelvis_ty/accel	/jointset/hip_l/hip_flexion_l/accel	/jointset/hip_l/hip_adduction_l/accel	/jointset/hip_l/hip_rotation_l/accel	/jointset/back/lumbar_extension/accel	/jointset/patellofemoral_l/patellar_flexion_l/accel	/jointset/knee_l/knee_flexion_l/accel	/jointset/knee_l/knee_adduction_l/accel	/jointset/knee_l/knee_rotation_l/accel	/jointset/ankle_l/ankle_angle_l/accel	/jointset/subtalar_l/subtalar_angle_l/accel	gamma_cid13_p0	gamma_cid13_p1	gamma_cid13_p2	gamma_cid13_p3	gamma_cid13_p4	gamma_cid13_p5	gamma_cid14_p0
0	-0.0403877787085624	0.06929525257544057	0.8959856519620309	0.1955292361009247	-0.321641274840071	-0.4906673353827443	-0.137903700187828	0.07015350928390703	0.07015350928391206	-0.1745327569709715	-0.1247704440076175	-0.06701017130107029	0.004295039356991084	0	0	0	0	0	0	0	0	0	0	0	0	0	0.09489183386366896	-0.06657466434367766	-0.02525529204907737	-0.1871268312609537	0.1125527334451032	-0.02059866922001344	-0.04633951333193862	-0.506690341383003	4.202411938193626	4.513761174558472	30.56558327098085	-518.8691478602907	-74.96131517040946	-40.10055722505435	-5.428105719345875	-2.65551051447169	-0.9703638280775393	12.96558535860307	-1.659349398891096	2.456815621356391	-2.987726585697119	7.174781245201135	7.174781245200856	0.07043044334974732	-0.7645799929324103	-0.3741358242154466	-2.028800229936268	1.981649979070135e-08	1.046565173817571e-07	2.090883532166064e-08	-1.025797620873864e-08	6.666477070355256e-08	9.66605782033924e-08	2.887111010716383e-09
0.01	-0.04064956493487299	0.06916460439453766	0.8959384182188432	0.1961582553416572	-0.3217231812928478	-0.4905448614624934	-0.1380572422186046	0.07050122666022447	0.07050122666033869	-0.1745323977400575	-0.1248046393433048	-0.06703092177677542	0.004193634932668582	-0.05217132589523012	-0.02595958521500661	-0.009414303689451625	0.1252256454633462	-0.01629931850255741	0.02439753615521999	-0.03033507527682572	0.06921899612808795	0.06921899612808056	8.003831452061425e-05	-0.0067808799563017	-0.004073901140646199	-0.02014814529263953	0.09164309765856006	-0.06898136807871028	-0.02493770036990527	-0.1854522028622038	0.1106933559825848	-0.01653368799490501	-0.04318560504494043	-0.9482305638593819	2.624788122199509	4.639074601578779	29.25758409431489	-519.7019740221065	-77.90041467572748	-40.10800756936437	-5.0837643819372	-2.540676930342129	-0.9220835646151492	12.21431853290937	-1.602934414799235	2.416634941538071	-3.000398366037558	6.746786349367969	6.746786349366793	-0.02196686086069128	-0.6261143951700994	-0.4125823270033849	-1.987930232398806	-5.966995160029073e-09	1.176242163784364e-07	5.662865633803816e-08	1.102325800135512e-08	-9.989432137243703e-08	8.205486889803443e-08	-2.015559639166823e-09
0.02	-0.04142748809158918	0.06877946148041938	0.8957980174537103	0.1980221839152478	-0.321965623198436	-0.4901813297148486	-0.1385029350757051	0.0715313995083349	0.07153139950832942	-0.174530989601688	-0.1249048979581623	-0.06709012427749166	0.003894727344725654	-0.1032273860835916	-0.05089894664307294	-0.01863340438902438	0.2469818666349683	-0.0321070905596884	0.0482115654677733	-0.0584301652481853	0.1364910943663931	0.1364910943663634	0.000209781174468972	-0.01321265584026197	-0.007690405001839803	-0.03950063272411852	0.08839436144983723	-0.07138807181325496	-0.024620108691737	-0.1837775744646672	0.1088339785198003	-0.01246870676940572	-0.04003169676098173	-1.346370650075906	1.038583831769093	4.766877400921629	27.92273087372049	-519.8477952153942	-80.73018542048402	-40.12990686345282	-5.205052577972922	-2.451465757083124	-0.9313232301019161	12.27170050025771	-1.561040109807286	2.340114252823023	-2.539729524604044	6.785401667244551	6.785401667241278	0.0803713524319544	-0.6947591784641407	-0.2826563683247931	-1.869668657705682	-3.175049011075949e-08	1.305919153751157e-07	9.234847735441568e-08	3.230449221144888e-08	-2.664534134484267e-07	6.744915959267646e-08	-6.91823028905003e-09
0.03	-0.0427103682459766	0.06814954295010871	0.8955661371372581	0.2010873090177301	-0.3223636886575901	-0.4895826783176567	-0.1392194484524477	0.07322515422610876	0.0732251542259884	-0.174527933848333	-0.1250680896303878	-0.06718358128838081	0.003406086165413108	-0.153098066471737	-0.07495997150380172	-0.02772877122481786	0.3654625996617573	-0.0474283175848471	0.07141060290100101	-0.08466941374670121	0.2019498087776632	0.2019498087776619	0.0003894778885316693	-0.01938785675695445	-0.01097803720389084	-0.05812662861409391	0.08444154485350437	-0.06832247809180562	-0.02415189160830113	-0.1810265771513306	0.1074932887806289	-0.01282329950387982	-0.03664591083696261	-1.728810427377913	1.210804111215857	4.795095460874564	27.3549194700721	-519.5265673050171	-79.55154355149979	-40.16545272810887	-4.840494818432231	-2.364696115643178	-0.8966142226583828	11.54916662799073	-1.506019916012698	2.293570451886084	-2.635558060278644	6.379601670215136	6.379601670220354	-0.01499023882419022	-0.5732170100114636	-0.3483697082537447	-1.843949955127581	-4.592274061483271e-08	1.454381731239392e-07	1.148594926657269e-07	4.507762592704705e-08	-3.784753476325768e-07	6.735273688816675e-08	-9.347543211397181e-09
0.04	-0.04448443901407082	0.06728275911817568	0.8952437089899766	0.2053198228354736	-0.3229126375704385	-0.4887552821535337	-0.1401922614237055	0.07556419515640163	0.07556419515639569	-0.1745234329417442	-0.1252918966042214	-0.06730922523371174	0.002734208047104197	-0.2014655088278729	-0.09827200696754516	-0.03674297055484435	0.480459609652507	-0.06228378129570651	0.09396051886676055	-0.1096900841573891	0.2655483368748209	0.2655483368748408	0.0004988118138778389	-0.02533571614323501	-0.01412779189026305	-0.07614802052343189	0.08048872825917372	-0.06525688437034978	-0.02368367452385662	-0.1782755798372076	0.1061525990417953	-0.01317789223817493	-0.03326012491154069	-2.072010364635211	1.375703987863234	4.824994665919457	26.75947099538513	-518.5900351529518	-78.27010343873513	-40.21378905536164	-4.904404971571269	-2.301667877685788	-0.9150897289485916	11.57495589304964	-1.46788744694807	2.210289959329377	-2.296013907038416	6.413364404422063	6.413364404417329	0.06629879468712288	-0.6492908723817503	-0.2550808651889228	-1.748747861578865	-5.9855584016913e-08	1.6032316404291e-07	1.370981614676554e-07	5.767533489018141e-08	-4.89372804334421e-07	6.755547473212813e-08	-1.17258590671972e-08
0.05	-0.04673564328634337	0.06618667167390908	0.8948312947086	0.2106863616325566	-0.3236077621971549	-0.4877055044285257	-0.141408206640226	0.0785306354723701	0.07853063547241128	-0.1745178271230859	-0.1255741474408885	-0.06746531403973222	0.001885408253769714	-0.2485489352194393	-0.120809728087147	-0.0457419815081313	0.5922898131136644	-0.07665878398142224	0.1158976678229794	-0.1332724142131638	0.3274342150059943	0.3274342150059789	0.0006132896414840678	-0.03106433505415225	-0.01705533579710676	-0.09349825688927013	0.07635076860731682	-0.06423841278192254	-0.02326880102495228	-0.1764328729111585	0.1052891556120023	-0.01195071398031285	-0.02977609851147346	-2.196243167421126	0.8806008125906614	4.885528243229138	25.81450400656423	-517.5822321218417	-78.37114336385183	-40.27383508691669	-4.576355804351985	-2.20944952202711	-0.8927199174714304	10.90328859437949	-1.409961509637033	2.170805741760909	-2.355360815097889	6.030375185367935	6.030375185365744	-0.0173045557555894	-0.5271133194165464	-0.3063937111417507	-1.711149901306127	-7.210241603923584e-08	1.74827649006045e-07	1.564355130719637e-07	6.931967569969581e-08	-5.653964641840283e-07	6.446154103209466e-08	-1.357984899258618e-08
